Coordinates
version=1
nRows=17
nColumns=40
inDegrees=yes

Units are S.I. units (second, meters, Newtons, ...)
Angles are in degrees.

endheader
time	pelvis_tilt	pelvis_list	pelvis_rotation	pelvis_tx	pelvis_ty	pelvis_tz	hip_flexion_r	hip_adduction_r	hip_rotation_r	knee_angle_r	knee_angle_r_beta	ankle_angle_r	subtalar_angle_r	mtp_angle_r	hip_flexion_l	hip_adduction_l	hip_rotation_l	knee_angle_l	knee_angle_l_beta	ankle_angle_l	subtalar_angle_l	mtp_angle_l	lumbar_extension	lumbar_bending	lumbar_rotation	arm_flex_r	arm_add_r	arm_rot_r	elbow_flex_r	pro_sup_r	wrist_flex_r	wrist_dev_r	arm_flex_l	arm_add_l	arm_rot_l	elbow_flex_l	pro_sup_l	wrist_flex_l	wrist_dev_l
     11.64942857	     -7.19262591	     -4.64248327	    -10.84998182	      0.95516261	      0.92831388	      0.41895729	     26.79089561	      1.04179981	     -6.83434691	     17.18853537	     17.18853537	      4.53841261	      9.92829116	      4.01475853	      6.68392785	     -3.18166437	    -10.06573323	     18.14915264	     18.14915264	     18.66284887	    -14.48067599	      4.90042302	     -9.42155740	      6.73431583	      2.39308755	    -15.02876648	    -11.94914717	    -19.26348932	     26.64859451	     46.38663918	      0.00000000	      0.00000000	     33.75394522	    -21.69895023	     -7.16317657	     74.10056593	     47.16586719	      0.00000000	      0.00000000
     11.66885714	     -7.08182077	     -4.55234102	    -11.00868817	      0.95563786	      0.92699033	      0.42202959	     26.35625443	      1.26212905	     -6.75705958	     15.77368514	     15.77368514	      3.78746970	     11.54049106	      4.90544549	      5.82170295	     -3.16777335	    -10.40362062	     17.70413227	     17.70413227	     19.01881291	    -14.08583517	      4.45330198	     -9.31033108	      6.61200768	      2.41860327	    -15.60523440	    -11.86432666	    -19.21770499	     27.03768821	     46.36224107	      0.00000000	      0.00000000	     34.79484694	    -21.89562023	     -7.67865999	     75.22862893	     47.24203392	      0.00000000	      0.00000000
     11.68828571	     -7.13965171	     -4.41687979	    -11.05304183	      0.95615419	      0.92514815	      0.42505874	     26.45231793	      1.39709210	     -6.38174657	     15.55780511	     15.55780511	      3.36078441	     12.00818631	      5.08043872	      5.34304940	     -3.12987696	    -10.42097192	     17.60508095	     17.60508095	     19.51370116	    -14.06191884	      4.22674445	     -8.89180040	      6.52819703	      2.24514412	    -15.78876419	    -11.83111947	    -19.22455055	     27.06121757	     46.36010519	      0.00000000	      0.00000000	     35.62672654	    -22.15714262	     -7.87682796	     75.65236410	     47.26977665	      0.00000000	      0.00000000
     11.70771429	     -6.94764709	     -4.37099096	    -11.00870311	      0.95712165	      0.92396366	      0.42822311	     25.87276910	      1.52547875	     -6.32214951	     15.10335885	     15.10335885	      2.60504416	     12.74095779	      3.95790554	      4.43120064	     -3.27385432	    -11.19611242	     17.27681156	     17.27681156	     19.76418006	    -12.79042127	      2.99041540	     -8.96870502	      6.47919571	      2.23908273	    -16.30110825	    -11.71807810	    -19.19491449	     28.65595011	     46.28657767	      0.00000000	      0.00000000	     36.05803278	    -21.85813627	     -9.51266579	     78.18732860	     47.46041149	      0.00000000	      0.00000000
     11.72714286	     -6.82525887	     -4.26333057	    -10.87602722	      0.95812658	      0.92277005	      0.43137608	     25.65048726	      1.59210250	     -5.83962559	     15.55120505	     15.55120505	      2.57370341	     12.38288455	      3.39099495	      3.67319229	     -3.25565831	    -11.27005398	     17.02645194	     17.02645194	     20.08913255	    -12.46271450	      2.77694118	     -8.82211407	      6.41503734	      2.24660012	    -16.17064256	    -11.67987293	    -19.10971016	     28.78601777	     46.27670906	      0.00000000	      0.00000000	     36.78109181	    -21.79597267	     -9.77525708	     78.84872736	     47.50099778	      0.00000000	      0.00000000
     11.74657143	     -6.90279961	     -4.25144971	    -10.67361355	      0.95926443	      0.92165134	      0.43461536	     25.40465411	      1.74732759	     -5.60187393	     15.86777032	     15.86777032	      2.77528348	     12.24860478	      3.13472011	      3.21054902	     -3.39703591	    -11.14988859	     16.95427988	     16.95427988	     20.39903061	    -12.34838048	      2.64660547	     -8.40050869	      6.53232245	      2.18414733	    -15.95120943	    -11.72059024	    -19.09619057	     28.88251332	     46.27373453	      0.00000000	      0.00000000	     37.18631706	    -21.72067507	     -9.83490702	     79.13012293	     47.51359406	      0.00000000	      0.00000000
     11.76600000	     -6.63694484	     -4.05116073	    -10.47235188	      0.96050354	      0.92104380	      0.43809583	     25.28859199	      1.77259128	     -4.57444397	     17.20496953	     17.20496953	      3.16879016	     10.43169006	      1.73368506	      2.28665387	     -3.35022196	    -11.59240617	     16.66990135	     16.66990135	     20.60370259	    -11.40030455	      2.35048518	     -8.52254770	      6.35369657	      2.38963326	    -15.61496494	    -11.71574638	    -19.01422220	     29.03608800	     46.26524212	      0.00000000	      0.00000000	     37.61447931	    -21.33232391	    -10.46703805	     80.28113734	     47.58512099	      0.00000000	      0.00000000
     11.78542857	     -6.61577689	     -4.08942060	    -10.17110279	      0.96185380	      0.92058163	      0.44176320	     24.76427679	      2.15131630	     -3.63194617	     17.36340365	     17.36340365	      2.25555056	      8.33963010	     -2.57097559	      1.74418772	     -3.72711202	    -12.15525692	     16.70443026	     16.70443026	     20.80284314	    -10.11009912	      1.64212194	     -8.35400748	      6.51111654	      1.65169080	    -14.65514683	    -11.96747077	    -18.50974510	     29.17740655	     46.24090214	      0.00000000	      0.00000000	     36.78180004	    -21.25129898	    -12.42385682	     82.36585627	     47.78549448	      0.00000000	      0.00000000
     11.80485714	     -6.53124056	     -3.99382295	     -9.86653204	      0.96314046	      0.92057566	      0.44537217	     24.48685065	      2.23863076	     -3.19642517	     18.19815681	     18.19815681	      2.95749716	      7.24814956	     -2.99213535	      1.07018629	     -3.81225533	    -12.16371397	     16.48873664	     16.48873664	     20.79688458	     -9.72053743	      1.66528185	     -8.25707957	      6.50812381	      1.78879620	    -14.14680114	    -12.09207001	    -18.41192706	     29.25808826	     46.23654787	      0.00000000	      0.00000000	     36.89956508	    -20.95696122	    -12.45171581	     82.68992809	     47.79906147	      0.00000000	      0.00000000
     11.82428571	     -6.49751770	     -3.94094646	     -9.54207158	      0.96437728	      0.92084039	      0.44918525	     24.15250461	      2.42604706	     -2.68115229	     18.80876658	     18.80876658	      3.62387950	      5.94869608	     -3.23421263	      0.46933931	     -4.01399941	    -12.30239151	     16.31053176	     16.31053176	     20.75530296	     -9.07541704	      1.64799019	     -8.12887762	      6.52630647	      1.82625265	    -13.55098377	    -12.26314868	    -18.32395098	     29.40044517	     46.23147875	      0.00000000	      0.00000000	     36.73900830	    -20.65120687	    -12.64448239	     83.08949416	     47.82422547	      0.00000000	      0.00000000
     11.84371429	     -6.52483580	     -3.95291539	     -9.12988062	      0.96555539	      0.92129644	      0.45293408	     23.74656709	      2.57186436	     -2.73319686	     19.13872051	     19.13872051	      4.24379390	      5.40427383	     -3.41700790	      0.03096564	     -4.30189404	    -12.22276392	     16.27809173	     16.27809173	     20.62847791	     -8.73138511	      1.68949506	     -7.94674223	      6.65974157	      1.85502415	    -12.95190221	    -12.48288204	    -18.30661921	     29.61916764	     46.22713413	      0.00000000	      0.00000000	     36.49586687	    -20.30571625	    -12.60910065	     83.18228088	     47.82387229	      0.00000000	      0.00000000
     11.86314286	     -6.47114468	     -3.96003598	     -8.77165976	      0.96666734	      0.92200277	      0.45700038	     23.30216121	      2.78264698	     -2.56282129	     19.50156410	     19.50156410	      4.89133025	      4.52274670	     -3.44611416	     -0.52386078	     -4.62375169	    -12.36007227	     16.19424280	     16.19424280	     20.48917061	     -8.05218348	      1.71977249	     -7.90857086	      6.68973712	      1.84961174	    -12.33747511	    -12.73725748	    -18.28381139	     29.90120113	     46.22025759	      0.00000000	      0.00000000	     36.08769668	    -20.10967254	    -12.77525826	     83.34374525	     47.83887272	      0.00000000	      0.00000000
     11.88257143	     -6.47707728	     -4.03765128	     -8.37814059	      0.96765511	      0.92279063	      0.46118348	     22.75087415	      3.11164159	     -2.33724694	     19.50396037	     19.50396037	      5.49530252	      3.56101037	     -3.01646193	     -0.86706303	     -5.14613144	    -12.78482034	     16.40869289	     16.40869289	     20.47504573	     -6.90809012	      1.65005405	     -7.82370393	      6.79789567	      1.55090088	    -11.60293523	    -13.03452155	    -18.19030202	     30.42616296	     46.20008784	      0.00000000	      0.00000000	     35.33315093	    -20.08217354	    -13.25985686	     83.64660077	     47.88102645	      0.00000000	      0.00000000
     11.90200000	     -6.51623742	     -4.01737114	     -7.94726522	      0.96849475	      0.92349998	      0.46523138	     22.31513305	      3.21734214	     -2.62002152	     19.57364794	     19.57364794	      6.01209671	      3.38475522	     -3.09730414	     -1.08335884	     -5.47844350	    -12.61549487	     16.66189777	     16.66189777	     20.22394728	     -6.71825077	      1.70980569	     -7.69313982	      6.78272734	      1.62024531	    -11.05900213	    -13.31009259	    -18.17649961	     30.68623434	     46.19369887	      0.00000000	      0.00000000	     34.83734016	    -19.70891908	    -13.14072557	     83.52896844	     47.86945915	      0.00000000	      0.00000000
     11.92142857	     -6.58598291	     -3.91968769	     -7.55802938	      0.96921780	      0.92422589	      0.46945130	     21.90512233	      3.28062419	     -2.84546805	     19.56820263	     19.56820263	      6.47477490	      3.22881249	     -3.19451046	     -1.22736466	     -5.74683272	    -12.45451886	     16.93763779	     16.93763779	     19.83211639	     -6.56604810	      1.79499510	     -7.55915274	      6.61635029	      1.82123309	    -10.65700955	    -13.52381695	    -18.18143621	     30.87498125	     46.19005582	      0.00000000	      0.00000000	     34.44968106	    -19.52103393	    -13.07534924	     83.38969620	     47.86064909	      0.00000000	      0.00000000
     11.94085714	     -6.45856133	     -4.07051174	     -7.04747932	      0.96989490	      0.92510608	      0.47350630	     21.15825764	      3.53745663	     -3.25561769	     19.37647011	     19.37647011	      6.88247249	      3.18035289	     -3.09939419	     -1.16244852	     -6.39135899	    -12.22470567	     18.07738423	     18.07738423	     19.64426615	     -6.50215060	      1.54153287	     -7.62846855	      6.78764514	      1.58481193	     -9.87146513	    -13.95820916	    -18.17831689	     31.44311661	     46.17369094	      0.00000000	      0.00000000	     33.45953123	    -19.18133227	    -12.91310446	     82.73180263	     47.83423932	      0.00000000	      0.00000000
     11.96028571	     -6.55266780	     -4.19243811	     -6.50524359	      0.97022657	      0.92564695	      0.47775497	     20.61957283	      3.81192377	     -3.70098007	     19.06603477	     19.06603477	      7.23854605	      3.21894450	     -2.82862629	     -0.53183260	     -7.16331868	    -12.02873624	     19.75211697	     19.75211697	     19.30122576	     -6.32507508	      0.88378966	     -7.44356999	      6.88188640	      1.22067515	     -9.25055586	    -14.30373495	    -18.06787031	     32.26588225	     46.13785926	      0.00000000	      0.00000000	     32.57405725	    -19.23683951	    -12.93338667	     81.73918602	     47.81720581	      0.00000000	      0.00000000
